<svg width="37" height="37" viewBox="0 0 37 37" fill="none" xmlns="http://www.w3.org/2000/svg">
<g id="Frame" clip-path="url(#clip0_2_184)">
<path id="Vector" d="M14.8639 29.7189C6.66479 29.7189 0 23.0487 0 14.8675C0 6.68636 6.66479 0 14.8639 0C23.0631 0 29.7279 6.67029 29.7279 14.8514C29.7279 23.0326 23.0631 29.7189 14.8639 29.7189ZM14.8639 4.3397C9.04622 4.3397 4.31533 9.06516 4.31533 14.8514C4.31533 20.6377 9.04622 25.3632 14.8639 25.3632C20.6816 25.3632 25.4125 20.6377 25.4125 14.8514C25.4125 9.06516 20.6816 4.3397 14.8639 4.3397Z" fill="#96C97C"/>
<path id="Vector_2" d="M23.3828 25.2989L35.194 36.9679C35.7534 37.0804 36.3447 36.8714 36.6964 36.4214C37.2078 35.7785 36.9521 35.007 36.9201 34.9587C33.0523 31.0369 29.2005 27.0991 25.3326 23.1772L23.3828 25.2989Z" fill="#96C97C"/>
</g>
<defs>
<clipPath id="clip0_2_184">
<rect width="37" height="37" fill="white"/>
</clipPath>
</defs>
</svg>
