<svg width="101" height="100" viewBox="0 0 101 100" fill="none" xmlns="http://www.w3.org/2000/svg">
<g id="Frame" clip-path="url(#clip0_2_180)">
<path id="Vector" d="M50.5 100C22.6534 100 0 77.5869 0 50.0205C0 22.454 22.6534 0 50.5 0C78.3466 0 101 22.4131 101 50.0205C101 77.6278 78.3466 100 50.5 100ZM50.5 6.54397C26.2518 6.54397 6.54251 26.0532 6.54251 50.0205C6.54251 73.9877 26.2518 93.4969 50.5 93.4969C74.7482 93.4969 94.4575 73.9877 94.4575 50.0205C94.4575 26.0532 74.7482 6.54397 50.5 6.54397Z" fill="#96C97C"/>
<path id="Vector_2" d="M49.3551 54.8467C38.5599 54.8467 29.8093 45.8896 29.8093 34.8467C29.8093 23.8037 38.6008 14.8467 49.3551 14.8467C60.1093 14.8467 68.9008 23.8037 68.9008 34.8467C68.9008 45.8896 60.1502 54.8467 49.3551 54.8467ZM49.3551 21.3906C42.1583 21.3906 36.3518 27.4438 36.3518 34.8467C36.3518 42.2495 42.1992 48.3027 49.3551 48.3027C56.5109 48.3027 62.3583 42.2495 62.3583 34.8467C62.3583 27.4438 56.5109 21.3906 49.3551 21.3906Z" fill="#96C97C"/>
<path id="Vector_3" d="M49.7231 99.182C49.1097 99.182 48.4964 99.182 47.9239 99.1411C41.9947 98.8957 35.3296 97.5869 30.1773 95.5419C22.6534 92.5972 17.9919 88.2209 16.7652 82.863C15.6202 77.7914 17.4603 71.8201 21.9583 66.0941C28.8688 57.3006 40.032 51.4929 50.3773 51.3293C60.6 51.1657 71.7632 56.4417 78.8781 64.7444C83.5397 70.1432 85.6251 75.9509 84.7255 81.0634C82.5992 93.7014 63.217 99.182 49.7231 99.182ZM23.1441 81.3906C24.7798 88.5072 38.7644 92.2291 48.1692 92.5971C61.0089 93.0879 76.9972 87.6483 78.3057 79.9182C78.8372 76.8098 77.2425 72.8017 73.9304 68.9571C69.1053 63.3129 59.9866 57.7096 50.5 57.8323C40.8907 57.9959 31.813 64.09 27.1105 70.1023C23.8802 74.1922 22.449 78.3231 23.1441 81.3906Z" fill="#96C97C"/>
</g>
<defs>
<clipPath id="clip0_2_180">
<rect width="101" height="100" fill="white"/>
</clipPath>
</defs>
</svg>
