<svg width="98" height="96" viewBox="0 0 98 96" fill="none" xmlns="http://www.w3.org/2000/svg">
<g id="Frame" clip-path="url(#clip0_2_130)">
<g id="Group">
<path id="Vector" d="M49 96C21.9872 96 0 74.4614 0 48.0132C0 21.5386 21.9872 0 49 0C76.0128 0 98 21.5386 98 48.0132C98 74.4614 76.0128 96 49 96ZM49 4.75117C24.5785 4.75117 4.71154 24.1518 4.71154 48.0132C4.71154 71.8746 24.5785 91.2752 49 91.2752C73.4215 91.2752 93.2885 71.8746 93.2885 48.0132C93.2885 24.1518 73.4215 4.75117 49 4.75117Z" fill="#96C97C"/>
<path id="Vector_2" d="M22.4322 8.26172L50.1779 35.7129L67.5321 19.0574L70.0972 19.4006L70.4637 61.9763L63.187 56.0901L62.6635 33.7597L50.9893 46.403L21.6207 18.0016L22.4322 8.26172Z" fill="#96C97C" stroke="#7F3089" stroke-miterlimit="10"/>
<path id="Vector_3" d="M76.7719 85.6266L51.1987 59.1257L35.2318 75.2005L32.8761 74.8837L32.5358 33.8125L39.2105 39.4875L39.7078 61.0261L50.4658 48.8315L77.531 76.2035L76.7719 85.6266Z" fill="#96C97C" stroke="#623E91" stroke-miterlimit="10"/>
</g>
</g>
<defs>
<clipPath id="clip0_2_130">
<rect width="98" height="96" fill="white"/>
</clipPath>
</defs>
</svg>
